<svg height="200" viewBox="0 0 100 200" width="100" xmlns="http://www.w3.org/2000/svg" xmlns:xlink="http://www.w3.org/1999/xlink"><defs><path id="a" d="m67.5 107.5c-.5-3.1-2.9-5.5-6-6-9-1.5-24-1.5-27-1.5s-18 0-27 1.5c-3.1.5-5.5 2.9-6 6-1.5 9-1.5 24-1.5 27s0 18 1.5 27c.5 3.1 2.9 5.5 6 6 9 1.5 24 1.5 27 1.5s18 0 27-1.5c3.1-.5 5.5-2.9 6-6 1.5-9 1.5-24 1.5-27 0-9 0-18-1.5-27zm-17.5 29.4-22.6 16.8c-.5.4-1.2.6-1.8.6-.5 0-.9-.1-1.4-.3-1-.5-1.7-1.6-1.7-2.7v-33.5c0-1.1.6-2.2 1.7-2.7 1-.5 2.2-.4 3.2.3l22.6 16.8c.8.6 1.2 1.5 1.2 2.4s-.5 1.7-1.2 2.3z"/><filter id="b" height="107.2%" width="108.7%" x="-4.3%" y="-2.9%"><feOffset dx="1" dy="1" in="SourceAlpha" result="shadowOffsetOuter1"/><feGaussianBlur in="shadowOffsetOuter1" result="shadowBlurOuter1" stdDeviation=".5"/><feColorMatrix in="shadowBlurOuter1" result="shadowMatrixOuter1" type="matrix" values="0 0 0 0 0   0 0 0 0 0   0 0 0 0 0  0 0 0 0.5 0"/><feOffset dx="-1" dy="0" in="SourceAlpha" result="shadowOffsetOuter2"/><feGaussianBlur in="shadowOffsetOuter2" result="shadowBlurOuter2" stdDeviation=".5"/><feColorMatrix in="shadowBlurOuter2" result="shadowMatrixOuter2" type="matrix" values="0 0 0 0 0   0 0 0 0 0   0 0 0 0 0  0 0 0 0.182856206 0"/><feMerge><feMergeNode in="shadowMatrixOuter1"/><feMergeNode in="shadowMatrixOuter2"/></feMerge></filter><path id="c" d="m67.5 7.5c-.5-3.1-2.9-5.5-6-6-9-1.5-24-1.5-27-1.5s-18 0-27 1.5c-3.1.5-5.5 2.9-6 6-1.5 9-1.5 24-1.5 27s0 18 1.5 27c.5 3.1 2.9 5.5 6 6 9 1.5 24 1.5 27 1.5s18 0 27-1.5c3.1-.5 5.5-2.9 6-6 1.5-9 1.5-24 1.5-27 0-9 0-18-1.5-27zm-17.5 29.4-22.6 16.8c-.5.4-1.2.6-1.8.6-.5 0-.9-.1-1.4-.3-1-.5-1.7-1.6-1.7-2.7v-33.5c0-1.1.6-2.2 1.7-2.7 1-.5 2.2-.4 3.2.3l22.6 16.8c.8.6 1.2 1.5 1.2 2.4s-.5 1.7-1.2 2.3z"/><filter id="d" height="107.2%" width="108.7%" x="-4.3%" y="-2.9%"><feOffset dx="1" dy="1" in="SourceAlpha" result="shadowOffsetOuter1"/><feGaussianBlur in="shadowOffsetOuter1" result="shadowBlurOuter1" stdDeviation=".5"/><feColorMatrix in="shadowBlurOuter1" result="shadowMatrixOuter1" type="matrix" values="0 0 0 0 0   0 0 0 0 0   0 0 0 0 0  0 0 0 0.5 0"/><feOffset dx="-1" dy="0" in="SourceAlpha" result="shadowOffsetOuter2"/><feGaussianBlur in="shadowOffsetOuter2" result="shadowBlurOuter2" stdDeviation=".5"/><feColorMatrix in="shadowBlurOuter2" result="shadowMatrixOuter2" type="matrix" values="0 0 0 0 0   0 0 0 0 0   0 0 0 0 0  0 0 0 0.182856206 0"/><feMerge><feMergeNode in="shadowMatrixOuter1"/><feMergeNode in="shadowMatrixOuter2"/></feMerge></filter></defs><g fill="none" transform="translate(15.4 15.9)"><g><use fill="#000" filter="url(#b)" xlink:href="#a"/><use fill="#f3f3f3" xlink:href="#a"/></g><g><use fill="#000" filter="url(#d)" xlink:href="#c"/><use fill="#fff" xlink:href="#c"/></g></g></svg>