<?xml version="1.0" encoding="UTF-8"?>
<svg width="71px" height="171px" viewBox="0 0 71 171" version="1.1" xmlns="http://www.w3.org/2000/svg" xmlns:xlink="http://www.w3.org/1999/xlink">
    <title>bigplay</title>
    <g id="bigplay" stroke="none" stroke-width="1" fill="none" fill-rule="evenodd">
        <g fill-rule="nonzero">
            <path d="M71,0 L71,71 L0,71 L0,0 L71,0 Z M27.8,16.3 C26.8,15.6 25.6,15.5 24.6,16 C23.5,16.5 22.9,17.6 22.9,18.7 L22.9,18.7 L22.9,52.2 C22.9,53.3 23.6,54.4 24.6,54.9 C25.1,55.1 25.5,55.2 26,55.2 C26.6,55.2 27.3,55 27.8,54.6 L27.8,54.6 L50.4,37.8 C51.1,37.2 51.6,36.4 51.6,35.5 C51.6,34.6 51.2,33.7 50.4,33.1 L50.4,33.1 Z" id="default" fill="#FFFFFF"></path>
            <path d="M71,100 L71,171 L0,171 L0,100 L71,100 Z M27.8,116.3 C26.8,115.6 25.6,115.5 24.6,116 C23.5,116.5 22.9,117.6 22.9,118.7 L22.9,118.7 L22.9,152.2 C22.9,153.3 23.6,154.4 24.6,154.9 C25.1,155.1 25.5,155.2 26,155.2 C26.6,155.2 27.3,155 27.8,154.6 L27.8,154.6 L50.4,137.8 C51.1,137.2 51.6,136.4 51.6,135.5 C51.6,134.6 51.2,133.7 50.4,133.1 L50.4,133.1 Z" id="hover" fill="#F3F3F3"></path>
        </g>
    </g>
</svg>