<?xml version="1.0" encoding="UTF-8"?>
<svg width="143px" height="37px" viewBox="0 0 143 37" version="1.1" xmlns="http://www.w3.org/2000/svg" xmlns:xlink="http://www.w3.org/1999/xlink">
    <title>controls-gebruikercentraal</title>
    <g id="Page-1" stroke="none" stroke-width="1" fill="none" fill-rule="evenodd">
        <g id="Laag_2" transform="translate(0.000000, 1.000000)">
            <g id="Group" transform="translate(25.000000, 0.000000)" fill="#732015" fill-rule="nonzero">
                <g id="Rectangle">
                    <rect x="0" y="0" width="6" height="2.2"></rect>
                    <rect x="0" y="0" width="2.2" height="6"></rect>
                </g>
                <g transform="translate(8.000000, 0.000000)" id="Rectangle">
                    <rect x="4.6" y="0" width="2.2" height="6"></rect>
                    <rect x="0.8" y="0" width="6" height="2.2"></rect>
                </g>
                <rect id="Rectangle" x="8.8" y="12.8" width="6" height="2.2"></rect>
                <rect id="Rectangle" x="12.6" y="8.9" width="2.2" height="6"></rect>
                <rect id="Rectangle" x="0" y="8.9" width="2.2" height="6"></rect>
                <rect id="Rectangle" x="0" y="12.7" width="6" height="2.2"></rect>
            </g>
            <g id="Group" transform="translate(25.000000, 19.000000)" fill="#732015" fill-rule="nonzero">
                <g id="Rectangle">
                    <rect x="0.1" y="4.7" width="6" height="2.2"></rect>
                    <rect x="3.9" y="0.9" width="2.2" height="6"></rect>
                </g>
                <g transform="translate(9.000000, 0.000000)" id="Rectangle">
                    <rect x="0" y="0.9" width="2.2" height="6"></rect>
                    <rect x="0" y="4.7" width="6" height="2.2"></rect>
                </g>
                <g transform="translate(9.000000, 9.000000)" id="Rectangle">
                    <rect x="0" y="0.9" width="6" height="2.2"></rect>
                    <rect x="0" y="1" width="2.2" height="6"></rect>
                </g>
                <g transform="translate(0.000000, 9.000000)" id="Rectangle">
                    <rect x="3.9" y="1" width="2.2" height="6"></rect>
                    <rect x="0.1" y="0.9" width="6" height="2.2"></rect>
                </g>
            </g>
            <path d="M10.5,8.3 L2,14.6 C1.8,14.7 1.6,14.8 1.3,14.8 C1.1,14.8 1,14.8 0.8,14.7 C0.4,14.5 0.2,14.1 0.2,13.7 L0.2,1.2 C0.2,0.8 0.4,0.4 0.8,0.2 C1.2,0 1.7,0 2,0.2 L10.5,6.5 C10.8,6.7 11,7 11,7.4 C11,7.8 10.8,8.1 10.5,8.3 Z" id="Path" fill="#732015" fill-rule="nonzero"></path>
            <g id="pause_1_" transform="translate(0.000000, 20.000000)" fill="#732015" fill-rule="nonzero">
                <rect id="Rectangle" x="0.1" y="0.1" width="3.7" height="14.7"></rect>
                <rect id="Rectangle" x="8.6" y="0.1" width="3.7" height="14.7"></rect>
            </g>
            <g id="Group" transform="translate(50.000000, 1.000000)" fill="#732015" fill-rule="nonzero">
                <path d="M15.9,6.5 C15.9,4.7 14.8,3.2 13.3,2.5 L12.3,4 C13.4,4.3 14.1,5.3 14.1,6.5 C14.1,7.7 13.3,8.7 12.3,9 L13.3,10.5 C14.8,9.8 15.9,8.2 15.9,6.5 Z" id="Path"></path>
                <path d="M15,0 L14,1.5 C15.9,2.4 17.2,4.3 17.2,6.5 C17.2,8.7 15.9,10.6 14,11.5 L15,13 C17.3,11.8 18.9,9.3 18.9,6.5 C18.9,3.7 17.3,1.2 15,0 Z" id="Path"></path>
                <path d="M9.4,0.2 L5,3.1 L4.1,3.1 L2.7,3.1 C0.6,3.1 -1.42108547e-14,4.7 -1.42108547e-14,6.5 C-1.42108547e-14,8.3 0.6,9.9 2.7,9.9 L5.1,9.9 L9.5,12.8 C10,13.1 10.6,12.8 10.6,12.2 L10.6,0.7 C10.5,0.2 9.9,-0.2 9.4,0.2 Z" id="Path"></path>
            </g>
            <path d="M59.4,21.3 L55,24.2 L54.1,24.2 L52.7,24.2 C50.6,24.2 50,25.8 50,27.6 C50,29.4 50.6,31 52.7,31 L55.1,31 L59.5,33.9 C60,34.2 60.6,33.9 60.6,33.3 L60.6,21.9 C60.5,21.3 59.9,21 59.4,21.3 Z" id="Path" fill="#732015" fill-rule="nonzero"></path>
            <rect id="Rectangle" stroke="#732015" stroke-width="1.2" x="75.4" y="0.4" width="14" height="14"></rect>
            <rect id="Rectangle" stroke="#732015" stroke-width="1.2" fill="#732015" fill-rule="nonzero" x="75.5" y="20.5" width="13.9" height="13.8"></rect>
            <g id="Group" transform="translate(77.000000, 4.000000)" fill="#732015" fill-rule="nonzero">
                <path d="M5.3,5.8 L5.3,6.9 C5,7 4.8,7 4.6,7 C4.4,7 4.2,7 3.9,7 C3,7 2.3,6.7 1.7,6.2 C1.1,5.7 0.8,4.9 0.8,3.8 C0.8,2.6 1.1,1.7 1.7,1.1 C2.3,0.5 3.1,0.2 4,0.2 C4.2,0.2 4.4,0.2 4.6,0.2 C4.8,0.2 5,0.3 5.2,0.3 L5.1,1.4 C4.9,1.4 4.7,1.3 4.5,1.3 C4.3,1.3 4.2,1.3 3.9,1.3 C3.4,1.3 2.9,1.5 2.6,1.9 C2.2,2.3 2,2.9 2,3.6 C2,4.3 2.2,4.9 2.6,5.2 C3,5.6 3.4,5.7 3.9,5.7 C4.2,5.7 4.4,5.7 4.6,5.7 C4.8,5.8 5,5.8 5.3,5.8 Z" id="Path"></path>
                <path d="M10,5.8 L10,6.9 C9.7,7 9.5,7 9.3,7 C9.1,7 8.9,7 8.6,7 C7.7,7 7,6.7 6.4,6.2 C5.8,5.7 5.5,4.9 5.5,3.8 C5.5,2.6 5.8,1.7 6.4,1.1 C7,0.5 7.8,0.2 8.7,0.2 C8.9,0.2 9.1,0.2 9.3,0.2 C9.5,0.2 9.7,0.3 9.9,0.3 L9.8,1.4 C9.6,1.4 9.4,1.3 9.2,1.3 C9,1.3 8.9,1.3 8.6,1.3 C8.1,1.3 7.6,1.5 7.3,1.9 C6.9,2.3 6.7,2.9 6.7,3.6 C6.7,4.3 6.9,4.9 7.3,5.2 C7.7,5.6 8.1,5.7 8.6,5.7 C8.9,5.7 9.1,5.7 9.3,5.7 C9.6,5.8 9.8,5.8 10,5.8 Z" id="Path"></path>
            </g>
            <rect id="Rectangle" stroke="#732015" stroke-width="1.2" x="100.5" y="0.4" width="14" height="14"></rect>
            <g id="Group" transform="translate(102.000000, 4.000000)" fill="#732015" fill-rule="nonzero">
                <path d="M3.6,0 L5.4,6.6 L4,6.6 L3.7,5.2 L1.6,5.2 L1.3,6.6 L-2.84217094e-14,6.6 L1.8,0 L3.6,0 Z M3.4,4.1 L2.6,1.1 L2.5,1.1 L1.7,4.1 L3.4,4.1 Z" id="Shape"></path>
                <path d="M7.7,6.6 L6,6.6 L6,0 L7.8,0 C8.9,0 9.7,0.3 10.2,0.8 C10.8,1.3 11,2.1 11,3.1 C11,4.3 10.7,5.2 10.1,5.7 C9.5,6.3 8.7,6.6 7.7,6.6 Z M7.2,1.1 L7.2,5.5 L7.8,5.5 C8.4,5.5 8.9,5.3 9.2,5 C9.5,4.7 9.7,4 9.7,3.2 C9.7,2.5 9.5,2 9.1,1.7 C8.7,1.4 8.2,1.2 7.6,1.2 L7.2,1.2 L7.2,1.1 Z" id="Shape"></path>
            </g>
            <rect id="Rectangle" stroke="#732015" stroke-width="1.2" fill="#732015" fill-rule="nonzero" x="100.6" y="20.6" width="13.9" height="13.8"></rect>
            <g id="niet-kleuren-cc" transform="translate(77.000000, 24.000000)" fill="#F3F3F3" fill-rule="nonzero">
                <path d="M5.2,5.8 L5.2,6.9 C4.9,7 4.7,7 4.5,7 C4.3,7 4.1,7 3.8,7 C2.9,7 2.2,6.7 1.6,6.2 C1,5.7 0.7,4.9 0.7,3.8 C0.7,2.6 1,1.7 1.6,1.1 C2.2,0.5 3,0.2 3.9,0.2 C4.1,0.2 4.3,0.2 4.5,0.2 C4.7,0.2 4.9,0.3 5.1,0.3 L5,1.4 C4.8,1.4 4.6,1.3 4.4,1.3 C4.2,1.3 4.1,1.3 3.8,1.3 C3.3,1.3 2.8,1.5 2.5,1.9 C2.1,2.3 1.9,2.9 1.9,3.6 C1.9,4.3 2.1,4.9 2.5,5.2 C2.9,5.6 3.3,5.7 3.8,5.7 C4.1,5.7 4.3,5.7 4.5,5.7 C4.7,5.8 4.9,5.8 5.2,5.8 Z" id="Path"></path>
                <path d="M9.9,5.8 L9.9,6.9 C9.6,7 9.4,7 9.2,7 C9,7 8.8,7 8.5,7 C7.6,7 6.9,6.7 6.3,6.2 C5.7,5.7 5.4,4.9 5.4,3.8 C5.4,2.6 5.7,1.7 6.3,1.1 C6.9,0.5 7.7,0.2 8.6,0.2 C8.8,0.2 9,0.2 9.2,0.2 C9.4,0.2 9.6,0.3 9.8,0.3 L9.7,1.4 C9.5,1.4 9.3,1.3 9.1,1.3 C8.9,1.3 8.8,1.3 8.5,1.3 C8,1.3 7.5,1.5 7.2,1.9 C6.8,2.3 6.6,2.9 6.6,3.6 C6.6,4.3 6.8,4.9 7.2,5.2 C7.6,5.6 8,5.7 8.5,5.7 C8.8,5.7 9,5.7 9.2,5.7 C9.4,5.8 9.6,5.8 9.9,5.8 Z" id="Path"></path>
            </g>
            <g id="niet-kleuren-ad" transform="translate(102.000000, 24.000000)" fill="#F3F3F3" fill-rule="nonzero">
                <path d="M3.7,0.2 L5.5,6.8 L4.1,6.8 L3.8,5.4 L1.7,5.4 L1.4,6.8 L0.1,6.8 L1.9,0.2 L3.7,0.2 L3.7,0.2 Z M3.5,4.3 L2.7,1.3 L2.6,1.3 L1.8,4.3 L3.5,4.3 Z" id="Shape"></path>
                <path d="M7.9,6.8 L6.2,6.8 L6.2,0.2 L8,0.2 C9.1,0.2 9.9,0.5 10.4,1 C11,1.5 11.2,2.3 11.2,3.3 C11.2,4.5 10.9,5.4 10.3,5.9 C9.7,6.5 8.9,6.8 7.9,6.8 Z M7.4,1.3 L7.4,5.7 L8,5.7 C8.6,5.7 9.1,5.5 9.4,5.2 C9.7,4.9 9.9,4.2 9.9,3.4 C9.9,2.7 9.7,2.2 9.3,1.9 C8.9,1.6 8.4,1.4 7.8,1.4 L7.4,1.4 L7.4,1.3 Z" id="Shape"></path>
            </g>
        </g>
    </g>
</svg>