<svg height="47" viewBox="0 0 159 47" width="159" xmlns="http://www.w3.org/2000/svg"><g fill="none" fill-rule="evenodd" transform="translate(6 6)"><g fill="#004152"><g fill-rule="nonzero"><path d="m25 0h6v2.2h-6z"/><path d="m25 0h2.2v6h-2.2z"/><path d="m37.6 0h2.2v6h-2.2z"/><path d="m33.8 0h6v2.2h-6z"/><path d="m33.8 12.8h6v2.2h-6z"/><path d="m37.6 8.9h2.2v6h-2.2z"/><path d="m25 8.9h2.2v6h-2.2z"/><path d="m25 12.7h6v2.2h-6z"/></g><g fill-rule="nonzero"><path d="m25.1 23.7h6v2.2h-6z"/><path d="m28.9 19.9h2.2v6h-2.2z"/><path d="m34 19.9h2.2v6h-2.2z"/><path d="m34 23.7h6v2.2h-6z"/><path d="m34 28.9h6v2.2h-6z"/><path d="m34 29h2.2v6h-2.2z"/><path d="m28.9 29h2.2v6h-2.2z"/><path d="m25.1 28.9h6v2.2h-6z"/></g><path d="m10.5 8.3-8.5 6.3c-.2.1-.4.2-.7.2-.2 0-.3 0-.5-.1-.4-.2-.6-.6-.6-1v-12.5c0-.4.2-.8.6-1s.9-.2 1.2 0l8.5 6.3c.3.2.5.5.5.9s-.2.7-.5.9z" fill-rule="nonzero"/><g fill-rule="nonzero"><path d="m.1 20.1h3.7v14.7h-3.7z"/><path d="m8.6 20.1h3.7v14.7h-3.7z"/></g><g fill-rule="nonzero" transform="translate(50 1)"><path d="m15.9 6.5c0-1.8-1.1-3.3-2.6-4l-1 1.5c1.1.3 1.8 1.3 1.8 2.5s-.8 2.2-1.8 2.5l1 1.5c1.5-.7 2.6-2.3 2.6-4z"/><path d="m15 0-1 1.5c1.9.9 3.2 2.8 3.2 5s-1.3 4.1-3.2 5l1 1.5c2.3-1.2 3.9-3.7 3.9-6.5s-1.6-5.3-3.9-6.5z"/><path d="m9.4.2-4.4 2.9h-.9-1.4c-2.1 0-2.7 1.6-2.7 3.4s.6 3.4 2.7 3.4h2.4l4.4 2.9c.5.3 1.1 0 1.1-.6v-11.5c-.1-.5-.7-.9-1.2-.5z"/></g><path d="m59.4 21.3-4.4 2.9h-.9-1.4c-2.1 0-2.7 1.6-2.7 3.4s.6 3.4 2.7 3.4h2.4l4.4 2.9c.5.3 1.1 0 1.1-.6v-11.4c-.1-.6-.7-.9-1.2-.6z" fill-rule="nonzero"/></g><path d="m75.4.4h14v14h-14z" stroke="#004152" stroke-width="1.2"/><path d="m75.5 20.5h13.9v13.8h-13.9z" fill="#004152" fill-rule="nonzero" stroke="#004152" stroke-width="1.2"/><g fill="#004152" fill-rule="nonzero" transform="translate(77 4)"><path d="m5.3 5.8v1.1c-.3.1-.5.1-.7.1s-.4 0-.7 0c-.9 0-1.6-.3-2.2-.8s-.9-1.3-.9-2.4c0-1.2.3-2.1.9-2.7s1.4-.9 2.3-.9h.6c.2 0 .4.1.6.1l-.1 1.1c-.2 0-.4-.1-.6-.1s-.3 0-.6 0c-.5 0-1 .2-1.3.6-.4.4-.6 1-.6 1.7s.2 1.3.6 1.6c.4.4.8.5 1.3.5h.7c.2.1.4.1.7.1z"/><path d="m10 5.8v1.1c-.3.1-.5.1-.7.1s-.4 0-.7 0c-.9 0-1.6-.3-2.2-.8s-.9-1.3-.9-2.4c0-1.2.3-2.1.9-2.7s1.4-.9 2.3-.9h.6c.2 0 .4.1.6.1l-.1 1.1c-.2 0-.4-.1-.6-.1s-.3 0-.6 0c-.5 0-1 .2-1.3.6-.4.4-.6 1-.6 1.7s.2 1.3.6 1.6c.4.4.8.5 1.3.5h.7c.3.1.5.1.7.1z"/></g><path d="m100.5.4h14v14h-14z" stroke="#004152" stroke-width="1.2"/><g fill="#004152" fill-rule="nonzero" transform="translate(102 4)"><path d="m3.6 0 1.8 6.6h-1.4l-.3-1.4h-2.1l-.3 1.4h-1.3l1.8-6.6zm-.2 4.1-.8-3h-.1l-.8 3z"/><path d="m7.7 6.6h-1.7v-6.6h1.8c1.1 0 1.9.3 2.4.8.6.5.8 1.3.8 2.3 0 1.2-.3 2.1-.9 2.6-.6.6-1.4.9-2.4.9zm-.5-5.5v4.4h.6c.6 0 1.1-.2 1.4-.5s.5-1 .5-1.8c0-.7-.2-1.2-.6-1.5s-.9-.5-1.5-.5h-.4z"/></g><path d="m100.6 20.6h13.9v13.8h-13.9z" fill="#004152" fill-rule="nonzero" stroke="#004152" stroke-width="1.2"/><g fill="#f3f3f3" fill-rule="nonzero" transform="translate(77 24)"><path d="m5.2 5.8v1.1c-.3.1-.5.1-.7.1s-.4 0-.7 0c-.9 0-1.6-.3-2.2-.8s-.9-1.3-.9-2.4c0-1.2.3-2.1.9-2.7s1.4-.9 2.3-.9h.6c.2 0 .4.1.6.1l-.1 1.1c-.2 0-.4-.1-.6-.1s-.3 0-.6 0c-.5 0-1 .2-1.3.6-.4.4-.6 1-.6 1.7s.2 1.3.6 1.6c.4.4.8.5 1.3.5h.7c.2.1.4.1.7.1z"/><path d="m9.9 5.8v1.1c-.3.1-.5.1-.7.1s-.4 0-.7 0c-.9 0-1.6-.3-2.2-.8s-.9-1.3-.9-2.4c0-1.2.3-2.1.9-2.7s1.4-.9 2.3-.9h.6c.2 0 .4.1.6.1l-.1 1.1c-.2 0-.4-.1-.6-.1s-.3 0-.6 0c-.5 0-1 .2-1.3.6-.4.4-.6 1-.6 1.7s.2 1.3.6 1.6c.4.4.8.5 1.3.5h.7c.2.1.4.1.7.1z"/></g><g fill="#f3f3f3" fill-rule="nonzero" transform="translate(102 24)"><path d="m3.7.2 1.8 6.6h-1.4l-.3-1.4h-2.1l-.3 1.4h-1.3l1.8-6.6zm-.2 4.1-.8-3h-.1l-.8 3z"/><path d="m7.9 6.8h-1.7v-6.6h1.8c1.1 0 1.9.3 2.4.8.6.5.8 1.3.8 2.3 0 1.2-.3 2.1-.9 2.6-.6.6-1.4.9-2.4.9zm-.5-5.5v4.4h.6c.6 0 1.1-.2 1.4-.5s.5-1 .5-1.8c0-.7-.2-1.2-.6-1.5s-.9-.5-1.5-.5h-.4z"/></g></g></svg>